<?xml version="1.0" encoding="UTF-8" standalone="no"?>
<!DOCTYPE svg PUBLIC "-//W3C//DTD SVG 1.1//EN" "http://www.w3.org/Graphics/SVG/1.1/DTD/svg11.dtd">
<svg width="100%" height="100%" viewBox="0 0 60 60" version="1.1" xmlns="http://www.w3.org/2000/svg" xmlns:xlink="http://www.w3.org/1999/xlink" xml:space="preserve" xmlns:serif="http://www.serif.com/" style="fill-rule:evenodd;clip-rule:evenodd;stroke-linecap:round;stroke-linejoin:round;stroke-miterlimit:1.5;">
    <g transform="matrix(0.788696,0.788696,-0.883883,0.883883,17.0409,-5.94006)">
        <path d="M26.517,17L7.241,17C6.004,17 5,16.104 5,15L5,11C5,9.896 6.004,9 7.241,9L26.517,9L26.517,-8.2C26.517,-9.304 27.522,-10.2 28.759,-10.2L33.241,-10.2C34.478,-10.2 35.483,-9.304 35.483,-8.2L35.483,9L54.759,9C55.996,9 57,9.896 57,11L57,15C57,16.104 55.996,17 54.759,17L35.483,17L35.483,34.2C35.483,35.304 34.478,36.2 33.241,36.2L28.759,36.2C27.522,36.2 26.517,35.304 26.517,34.2L26.517,17Z" style="fill:rgb(235,235,235);stroke:black;stroke-width:0.42px;"/>
    </g>
</svg>
