<?xml version="1.0" encoding="UTF-8" standalone="no"?>
<!DOCTYPE svg PUBLIC "-//W3C//DTD SVG 1.1//EN" "http://www.w3.org/Graphics/SVG/1.1/DTD/svg11.dtd">
<svg width="100%" height="100%" viewBox="0 0 60 60" version="1.1" xmlns="http://www.w3.org/2000/svg" xmlns:xlink="http://www.w3.org/1999/xlink" xml:space="preserve" xmlns:serif="http://www.serif.com/" style="fill-rule:evenodd;clip-rule:evenodd;stroke-linecap:round;stroke-linejoin:round;stroke-miterlimit:1.5;">
    <g transform="matrix(1.11538,0,0,1.25,-4.57692,-3.75)">
        <path d="M57,11L57,15C57,16.104 55.996,17 54.759,17L7.241,17C6.004,17 5,16.104 5,15L5,11C5,9.896 6.004,9 7.241,9L54.759,9C55.996,9 57,9.896 57,11Z" style="fill:rgb(235,235,235);stroke:black;stroke-width:0.42px;"/>
    </g>
    <g transform="matrix(1.11538,0,0,1.25,-4.57692,31.25)">
        <path d="M57,11L57,15C57,16.104 55.996,17 54.759,17L7.241,17C6.004,17 5,16.104 5,15L5,11C5,9.896 6.004,9 7.241,9L54.759,9C55.996,9 57,9.896 57,11Z" style="fill:rgb(235,235,235);stroke:black;stroke-width:0.42px;"/>
    </g>
    <g transform="matrix(1.11538,0,0,1.25,-4.57692,13.75)">
        <path d="M57,11L57,15C57,16.104 55.996,17 54.759,17L7.241,17C6.004,17 5,16.104 5,15L5,11C5,9.896 6.004,9 7.241,9L54.759,9C55.996,9 57,9.896 57,11Z" style="fill:rgb(235,235,235);stroke:black;stroke-width:0.42px;"/>
    </g>
</svg>
